<svg width="188" height="36" viewBox="0 0 94 18" fill="none" xmlns="http://www.w3.org/2000/svg">
    <path d="M0.975 0.674999H4.4V14.125H10.95V17H0.975V0.674999ZM15.0424 0.674999H18.4674V17H15.0424V0.674999ZM28.5904 17.3C27.4904 17.3 26.4154 17.1 25.3654 16.7C24.3154 16.2833 23.3904 15.6917 22.5904 14.925L24.5654 12.575C25.1654 13.1083 25.8238 13.5333 26.5404 13.85C27.2738 14.1667 27.9821 14.325 28.6654 14.325C29.4654 14.325 30.0738 14.175 30.4904 13.875C30.9238 13.5583 31.1404 13.125 31.1404 12.575C31.1404 12.225 31.0404 11.9333 30.8404 11.7C30.6571 11.4667 30.4154 11.275 30.1154 11.125C29.8321 10.975 29.3654 10.7667 28.7154 10.5L26.5654 9.575C25.5988 9.175 24.8071 8.61667 24.1904 7.9C23.5738 7.16667 23.2654 6.25 23.2654 5.15C23.2654 4.26667 23.5071 3.46667 23.9904 2.75C24.4904 2.01667 25.1738 1.44167 26.0404 1.025C26.9071 0.591666 27.8821 0.374999 28.9654 0.374999C29.9154 0.374999 30.8488 0.566666 31.7654 0.95C32.6821 1.31667 33.4738 1.83333 34.1404 2.5L32.4154 4.675C31.8488 4.225 31.2904 3.89167 30.7404 3.675C30.1904 3.45833 29.5988 3.35 28.9654 3.35C28.2821 3.35 27.7404 3.49167 27.3404 3.775C26.9404 4.05833 26.7404 4.45 26.7404 4.95C26.7404 5.3 26.8404 5.59167 27.0404 5.825C27.2571 6.05833 27.5154 6.25 27.8154 6.4C28.1321 6.55 28.6154 6.75833 29.2654 7.025L31.3654 7.875C32.4154 8.30833 33.2238 8.88333 33.7904 9.6C34.3571 10.3 34.6404 11.2 34.6404 12.3C34.6404 13.2167 34.3988 14.0583 33.9154 14.825C33.4321 15.575 32.7321 16.175 31.8154 16.625C30.8988 17.075 29.8238 17.3 28.5904 17.3ZM41.4461 3.55H36.8961V0.674999H49.4461V3.55H44.8711V17H41.4461V3.55ZM53.2895 0.674999H58.7395C60.7061 0.674999 62.2645 1.08333 63.4145 1.9C64.5811 2.7 65.1645 4.01667 65.1645 5.85C65.1645 7.65 64.5728 9.00833 63.3895 9.925C62.2061 10.8417 60.6895 11.3 58.8395 11.3H56.7145V17H53.2895V0.674999ZM58.6145 8.575C60.7478 8.575 61.8145 7.66667 61.8145 5.85C61.8145 4.98333 61.5395 4.35833 60.9895 3.975C60.4561 3.59167 59.6311 3.4 58.5145 3.4H56.7145V8.575H58.6145ZM75.6898 12.925H70.5648L69.4648 17H65.9648L71.1648 0.674999H75.2398L80.4148 17H76.7898L75.6898 12.925ZM74.9898 10.275L74.5398 8.6C74.3398 7.86667 74.0398 6.71667 73.6398 5.15L73.1648 3.3H73.0648C72.5648 5.45 72.1232 7.21667 71.7398 8.6L71.2898 10.275H74.9898ZM83.5238 0.674999H86.9488V14.125H93.4988V17H83.5238V0.674999Z" fill="#424242"/>
</svg>